<!-- Feature card illustration: "Automatic SSL, Zero Effort"
     A shield containing a padlock, with dashed rings suggesting edge/proxy
     protection, and a resolve-green checkmark badge for "done, no config needed". -->
<svg viewBox="0 0 480 300" xmlns="http://www.w3.org/2000/svg" role="img"
     aria-label="Shield with a padlock, representing automatic SSL and edge protection">
  <rect width="480" height="300" rx="12" fill="#0A0A0A" />
  <rect x="0.5" y="0.5" width="479" height="299" rx="11.5" fill="none" stroke="rgba(255,255,255,0.08)" />

  <circle cx="240" cy="150" r="92" fill="none" stroke="rgba(255,255,255,0.06)" stroke-dasharray="4 6" />
  <circle cx="240" cy="150" r="70" fill="none" stroke="rgba(255,255,255,0.08)" stroke-dasharray="4 6" />

  <g transform="translate(240,150)">
    <path d="M -46 -58 L 0 -74 L 46 -58 L 46 -6 C 46 34 22 62 0 74 C -22 62 -46 34 -46 -6 Z"
          fill="#151515" stroke="rgba(255,255,255,0.15)" stroke-width="1.5" />

    <rect x="-20" y="-4" width="40" height="30" rx="6" fill="#FFFFFF" />
    <path d="M -12 -4 L -12 -18 C -12 -28 12 -28 12 -18 L 12 -4"
          fill="none" stroke="#FFFFFF" stroke-width="6" />
    <circle cx="0" cy="11" r="4" fill="#0A0A0A" />

    <circle cx="34" cy="46" r="15" fill="#1E9E63" />
    <path d="M 28 46 L 33 51 L 41 41" fill="none" stroke="#FFFFFF" stroke-width="3" stroke-linecap="round" stroke-linejoin="round" />
  </g>

  <text x="240" y="252" text-anchor="middle" font-family="'JetBrains Mono','SF Mono',Consolas,monospace" font-size="13" fill="#888888">wildcard · *.m2hio.in</text>
</svg>
